<svg width="24" height="24" viewBox="0 0 24 24" fill="none" xmlns="http://www.w3.org/2000/svg">
<path d="M4.9999 2.99996L4.99989 21C5.00047 21.1822 5.05073 21.3608 5.14527 21.5166C5.23982 21.6724 5.37506 21.7995 5.53645 21.8842C5.69783 21.9688 5.87925 22.0078 6.06118 21.9971C6.2431 21.9863 6.41864 21.9261 6.56889 21.823L19.5689 12.823C20.1079 12.45 20.1079 11.552 19.5689 11.178L6.5689 2.17796C6.41895 2.07379 6.24333 2.0127 6.0611 2.00133C5.87887 1.98996 5.69702 2.02875 5.53529 2.11348C5.37356 2.19821 5.23814 2.32564 5.14375 2.48193C5.04936 2.63822 4.99961 2.81738 4.9999 2.99996Z" fill="black"/>
</svg>
