<svg width="42" height="46" viewBox="0 0 42 46" fill="none" xmlns="http://www.w3.org/2000/svg">
<path d="M16.5013 1.32516L4.00126 8.32516C0.80126 10.1172 2.66793 11.7385 4.00126 12.3251L18.0013 19.8251C20.0013 21.8251 22.1679 20.6585 23.0013 19.8251L35.5013 12.3251C40.3013 10.3251 37.5013 8.15847 35.5013 7.32513L24.0013 1.32516C21.6013 -1.07484 18.0013 0.325164 16.5013 1.32516Z" fill="white"/>
<path d="M7 40.8252L0 37.3252V14.8252L7 17.8252V40.8252Z" fill="white"/>
<path d="M17 45.8252L10 42.3252V19.8252L17 22.8252V45.8252Z" fill="white"/>
<path d="M40 13L23 23V34L40 24V13Z" fill="white"/>
<path d="M23 46V36.5L41.5 25.5V35L23 46Z" fill="white"/>
</svg>
